<svg xmlns="http://www.w3.org/2000/svg" width="128" height="128"><filter id="a" width="1" height="1" x="0" y="0"><feColorMatrix color-interpolation-filters="sRGB" values="0 0 0 0 1 0 0 0 0 1 0 0 0 0 1 0 0 0 1 0"/></filter><mask id="b"><g filter="url(#a)"><path fill-opacity=".28" d="M-12.8-12.8h153.6v153.6H-12.8z"/></g></mask><clipPath id="c"><path d="M0 0h192v152H0z"/></clipPath><mask id="d"><g filter="url(#a)"><path fill-opacity=".28" d="M-12.8-12.8h153.6v153.6H-12.8z"/></g></mask><clipPath id="e"><path d="M0 0h192v152H0z"/></clipPath><path fill="#1d1f21" d="M49.625 117.895c0 5.296-4.293 9.59-9.59 9.59s-9.59-4.294-9.59-9.59 4.293-9.59 9.59-9.59 9.59 4.293 9.59 9.59M94.371 117.895a9.59 9.59 0 1 1-19.176 0 9.59 9.59 0 1 1 19.176 0m0 0"/><path fill="#c4c8c3" d="M32.887 9.227h64.68c7.062 0 12.785.483 12.785 7.541v81.95c0 7.06-5.723 12.786-12.786 12.786H27.25c-7.059 0-12.785-5.727-12.785-12.785v-82.68c0-7.059 11.364-6.812 18.422-6.812" style="fill:#38c8c3;fill-opacity:1"/><path fill="#eceeed" d="M24.055 9.227h76.707c5.297 0 9.59 2.144 9.59 4.793s-4.293 4.793-9.59 4.793H24.055c-5.297 0-9.59-2.145-9.59-4.793s4.293-4.793 9.59-4.793m0 0"/><path fill="#f6f6f4" d="M30.445 22.008h63.926a6.39 6.39 0 0 1 6.39 6.394v22.371a6.39 6.39 0 0 1-6.39 6.395H30.445a6.394 6.394 0 0 1-6.39-6.395v-22.37a6.394 6.394 0 0 1 6.39-6.395m0 0"/><path fill="#5c5e5b" d="M51.223 34.793h22.375a4.797 4.797 0 0 1 4.793 4.797 4.794 4.794 0 0 1-4.793 4.793H51.223a4.79 4.79 0 0 1-4.793-4.793 4.795 4.795 0 0 1 4.793-4.797m0 0"/><path fill="#f6f6f4" d="M30.445 63.559h63.926a6.39 6.39 0 0 1 6.39 6.394v22.371a6.39 6.39 0 0 1-6.39 6.395H30.445a6.394 6.394 0 0 1-6.39-6.395v-22.37a6.394 6.394 0 0 1 6.39-6.395m0 0"/><path fill="#5c5e5b" d="M51.223 76.344h22.375a4.797 4.797 0 0 1 4.793 4.797 4.794 4.794 0 0 1-4.793 4.793H51.223a4.79 4.79 0 0 1-4.793-4.793 4.795 4.795 0 0 1 4.793-4.797m0 0"/><g mask="url(#b)"><g clip-path="url(#c)" transform="translate(-8 -16)"><path fill="#fff" d="M51.23 133.895a3.195 3.195 0 1 1-3.195-3.195 3.194 3.194 0 0 1 3.195 3.195m0 0"/></g></g><g mask="url(#d)"><g clip-path="url(#e)" transform="translate(-8 -16)"><path fill="#fff" d="M95.98 133.895a3.197 3.197 0 0 1-6.394 0 3.198 3.198 0 0 1 6.395 0m0 0"/></g></g></svg>