<?xml version="1.0" encoding="UTF-8"?>
<svg height="128px" viewBox="0 0 128 128" width="128px" xmlns="http://www.w3.org/2000/svg" xmlns:xlink="http://www.w3.org/1999/xlink">
    <filter id="a" height="100%" width="100%" x="0%" y="0%">
        <feColorMatrix color-interpolation-filters="sRGB" values="0 0 0 0 1 0 0 0 0 1 0 0 0 0 1 0 0 0 1 0"/>
    </filter>
    <mask id="b">
        <g filter="url(#a)">
            <rect fill-opacity="0.28" height="153.6" width="153.6" x="-12.8" y="-12.8"/>
        </g>
    </mask>
    <clipPath id="c">
        <rect height="152" width="192"/>
    </clipPath>
    <mask id="d">
        <g filter="url(#a)">
            <rect fill-opacity="0.28" height="153.6" width="153.6" x="-12.8" y="-12.8"/>
        </g>
    </mask>
    <clipPath id="e">
        <rect height="152" width="192"/>
    </clipPath>
    <mask id="f">
        <g filter="url(#a)">
            <rect fill-opacity="0.35" height="153.6" width="153.6" x="-12.8" y="-12.8"/>
        </g>
    </mask>
    <linearGradient id="g" gradientTransform="matrix(1.547348 0 0 1.650505 -31.868961 -19.521957)" gradientUnits="userSpaceOnUse" x1="35.115047" x2="35.115047" y1="27.110884" y2="89.078613">
        <stop offset="0" stop-color="#ffffff" stop-opacity="0.55"/>
        <stop offset="1" stop-color="#ffffff" stop-opacity="0"/>
    </linearGradient>
    <clipPath id="h">
        <rect height="152" width="192"/>
    </clipPath>
    <path d="m 49.625 117.894531 c 0 5.296875 -4.292969 9.589844 -9.589844 9.589844 s -9.589844 -4.292969 -9.589844 -9.589844 s 4.292969 -9.589843 9.589844 -9.589843 s 9.589844 4.292968 9.589844 9.589843 z m 0 0" fill="#1d1f21"/>
    <path d="m 94.371094 117.894531 c 0 5.296875 -4.292969 9.589844 -9.589844 9.589844 c -5.292969 0 -9.585938 -4.292969 -9.585938 -9.589844 s 4.292969 -9.589843 9.585938 -9.589843 c 5.296875 0 9.589844 4.292968 9.589844 9.589843 z m 0 0" fill="#1d1f21"/>
    <path d="m 27.25 9.226562 h 70.316406 c 7.0625 0 12.785156 5.722657 12.785156 12.78125 v 76.710938 c 0 7.058594 -5.722656 12.785156 -12.785156 12.785156 h -70.316406 c -7.058594 0 -12.785156 -5.726562 -12.785156 -12.785156 v -76.710938 c 0 -7.058593 5.726562 -12.78125 12.785156 -12.78125 z m 0 0" fill="#c4c8c3"/>
    <path d="m 24.054688 9.226562 h 76.707031 c 5.296875 0 9.589843 2.144532 9.589843 4.792969 c 0 2.648438 -4.292968 4.792969 -9.589843 4.792969 h -76.707031 c -5.296876 0 -9.589844 -2.144531 -9.589844 -4.792969 c 0 -2.648437 4.292968 -4.792969 9.589844 -4.792969 z m 0 0" fill="#eceeed"/>
    <path d="m 30.445312 22.007812 h 63.925782 c 3.53125 0 6.390625 2.863282 6.390625 6.394532 v 22.371094 c 0 3.53125 -2.859375 6.394531 -6.390625 6.394531 h -63.925782 c -3.527343 0 -6.390624 -2.863281 -6.390624 -6.394531 v -22.371094 c 0 -3.53125 2.863281 -6.394532 6.390624 -6.394532 z m 0 0" fill="#f6f6f4"/>
    <path d="m 51.222656 36.390625 h 22.375 c 2.644532 0 4.792969 2.148437 4.792969 4.796875 s -2.148437 4.792969 -4.792969 4.792969 h -22.375 c -2.648437 0 -4.792968 -2.144531 -4.792968 -4.792969 s 2.144531 -4.796875 4.792968 -4.796875 z m 0 0" fill="#5c5e5b"/>
    <path d="m 30.445312 63.558594 h 63.925782 c 3.53125 0 6.390625 2.863281 6.390625 6.394531 v 22.371094 c 0 3.53125 -2.859375 6.394531 -6.390625 6.394531 h -63.925782 c -3.527343 0 -6.390624 -2.863281 -6.390624 -6.394531 v -22.371094 c 0 -3.53125 2.863281 -6.394531 6.390624 -6.394531 z m 0 0" fill="#f6f6f4"/>
    <path d="m 51.222656 77.941406 h 22.375 c 2.644532 0 4.792969 2.148438 4.792969 4.796875 c 0 2.648438 -2.148437 4.792969 -4.792969 4.792969 h -22.375 c -2.648437 0 -4.792968 -2.144531 -4.792968 -4.792969 c 0 -2.648437 2.144531 -4.796875 4.792968 -4.796875 z m 0 0" fill="#5c5e5b"/>
    <g mask="url(#b)">
        <g clip-path="url(#c)" transform="matrix(1 0 0 1 -8 -16)">
            <path d="m 51.230469 133.894531 c 0 1.765625 -1.429688 3.195313 -3.195313 3.195313 s -3.195312 -1.429688 -3.195312 -3.195313 s 1.429687 -3.195312 3.195312 -3.195312 s 3.195313 1.429687 3.195313 3.195312 z m 0 0" fill="#ffffff"/>
        </g>
    </g>
    <g mask="url(#d)">
        <g clip-path="url(#e)" transform="matrix(1 0 0 1 -8 -16)">
            <path d="m 95.980469 133.894531 c 0 1.765625 -1.433594 3.195313 -3.199219 3.195313 s -3.195312 -1.429688 -3.195312 -3.195313 s 1.429687 -3.195312 3.195312 -3.195312 s 3.199219 1.429687 3.199219 3.195312 z m 0 0" fill="#ffffff"/>
        </g>
    </g>
    <g mask="url(#f)">
        <g clip-path="url(#h)" transform="matrix(1 0 0 1 -8 -16)">
            <path d="m 35.25 25.226562 h 70.316406 c 7.0625 0 12.785156 5.722657 12.785156 12.78125 v 76.710938 c 0 7.058594 -5.722656 12.785156 -12.785156 12.785156 h -70.316406 c -7.058594 0 -12.785156 -5.726562 -12.785156 -12.785156 v -76.710938 c 0 -7.058593 5.726562 -12.78125 12.785156 -12.78125 z m 0 0" fill="url(#g)"/>
        </g>
    </g>
</svg>
